<svg xmlns="http://www.w3.org/2000/svg" width="980" height="420" viewBox="0 0 980 420">
<rect width="100%" height="100%" fill="#fbfaf6"/>
<text x="70" y="28" font-family="Helvetica, Arial, sans-serif" font-size="22" font-weight="700" fill="#17324d">clean_c waveform snapshot</text>
<text x="70" y="44" font-family="Helvetica, Arial, sans-serif" font-size="12" fill="#5b6c7d">Raw DUT FFT window, seq 1, fs=100.00 Hz, n=256</text>
<rect x="70" y="50" width="880" height="315" fill="#fffdfa" stroke="#d9d2c3" stroke-width="1"/>
<line x1="70.00" y1="50" x2="70.00" y2="365" stroke="#ece6da" stroke-width="1"/>
<text x="70.00" y="398" text-anchor="middle" font-family="Helvetica, Arial, sans-serif" font-size="11" fill="#58677a">0.00</text>
<line x1="290.00" y1="50" x2="290.00" y2="365" stroke="#ece6da" stroke-width="1"/>
<text x="290.00" y="398" text-anchor="middle" font-family="Helvetica, Arial, sans-serif" font-size="11" fill="#58677a">0.64</text>
<line x1="510.00" y1="50" x2="510.00" y2="365" stroke="#ece6da" stroke-width="1"/>
<text x="510.00" y="398" text-anchor="middle" font-family="Helvetica, Arial, sans-serif" font-size="11" fill="#58677a">1.27</text>
<line x1="730.00" y1="50" x2="730.00" y2="365" stroke="#ece6da" stroke-width="1"/>
<text x="730.00" y="398" text-anchor="middle" font-family="Helvetica, Arial, sans-serif" font-size="11" fill="#58677a">1.91</text>
<line x1="950.00" y1="50" x2="950.00" y2="365" stroke="#ece6da" stroke-width="1"/>
<text x="950.00" y="398" text-anchor="middle" font-family="Helvetica, Arial, sans-serif" font-size="11" fill="#58677a">2.55</text>
<line x1="70" y1="365.00" x2="950" y2="365.00" stroke="#ece6da" stroke-width="1"/>
<text x="60" y="369.00" text-anchor="end" font-family="Helvetica, Arial, sans-serif" font-size="11" fill="#58677a">-5.82</text>
<line x1="70" y1="286.25" x2="950" y2="286.25" stroke="#ece6da" stroke-width="1"/>
<text x="60" y="290.25" text-anchor="end" font-family="Helvetica, Arial, sans-serif" font-size="11" fill="#58677a">-2.91</text>
<line x1="70" y1="207.50" x2="950" y2="207.50" stroke="#ece6da" stroke-width="1"/>
<text x="60" y="211.50" text-anchor="end" font-family="Helvetica, Arial, sans-serif" font-size="11" fill="#58677a">0.00</text>
<line x1="70" y1="128.75" x2="950" y2="128.75" stroke="#ece6da" stroke-width="1"/>
<text x="60" y="132.75" text-anchor="end" font-family="Helvetica, Arial, sans-serif" font-size="11" fill="#58677a">2.91</text>
<line x1="70" y1="50.00" x2="950" y2="50.00" stroke="#ece6da" stroke-width="1"/>
<text x="60" y="54.00" text-anchor="end" font-family="Helvetica, Arial, sans-serif" font-size="11" fill="#58677a">5.82</text>
<text x="510.00" y="414" text-anchor="middle" font-family="Helvetica, Arial, sans-serif" font-size="12" fill="#35495e">Time (s)</text>
<text x="20" y="207.50" text-anchor="middle" font-family="Helvetica, Arial, sans-serif" font-size="12" fill="#35495e" transform="rotate(-90 20 207.50)">Signal value</text>
<polyline fill="none" stroke="#0b7189" stroke-width="2" points="70.00,207.50 73.45,158.35 76.90,115.05 80.35,82.58 83.80,64.35 87.25,61.67 90.71,73.69 94.16,97.57 97.61,129.03 101.06,163.03 104.51,194.63 107.96,219.69 111.41,235.48 114.86,240.91 118.31,236.63 121.76,224.67 125.22,207.95 128.67,189.74 132.12,173.01 135.57,159.97 139.02,151.83 142.47,148.73 145.92,149.95 149.37,154.24 152.82,160.24 156.27,166.91 159.73,173.80 163.18,181.16 166.63,189.80 170.08,200.88 173.53,215.45 176.98,234.07 180.43,256.41 183.88,281.13 187.33,305.89 190.78,327.61 194.24,342.96 197.69,348.94 201.14,343.50 204.59,326.02 208.04,297.58 211.49,260.97 214.94,220.42 218.39,180.97 221.84,147.78 225.29,125.29 228.75,116.49 232.20,122.43 235.65,141.97 239.10,171.91 242.55,207.50 246.00,243.09 249.45,273.03 252.90,292.57 256.35,298.51 259.80,289.71 263.25,267.22 266.71,234.03 270.16,194.58 273.61,154.03 277.06,117.42 280.51,88.98 283.96,71.50 287.41,66.06 290.86,72.04 294.31,87.39 297.76,109.11 301.22,133.87 304.67,158.59 308.12,180.93 311.57,199.55 315.02,214.12 318.47,225.20 321.92,233.84 325.37,241.20 328.82,248.09 332.27,254.76 335.73,260.76 339.18,265.05 342.63,266.27 346.08,263.17 349.53,255.03 352.98,241.99 356.43,225.26 359.88,207.05 363.33,190.33 366.78,178.37 370.24,174.09 373.69,179.52 377.14,195.31 380.59,220.37 384.04,251.97 387.49,285.97 390.94,317.43 394.39,341.31 397.84,353.33 401.29,350.65 404.75,332.42 408.20,299.95 411.65,256.65 415.10,207.50 418.55,158.35 422.00,115.05 425.45,82.58 428.90,64.35 432.35,61.67 435.80,73.69 439.25,97.57 442.71,129.03 446.16,163.03 449.61,194.63 453.06,219.69 456.51,235.48 459.96,240.91 463.41,236.63 466.86,224.67 470.31,207.95 473.76,189.74 477.22,173.01 480.67,159.97 484.12,151.83 487.57,148.73 491.02,149.95 494.47,154.24 497.92,160.24 501.37,166.91 504.82,173.80 508.27,181.16 511.73,189.80 515.18,200.88 518.63,215.45 522.08,234.07 525.53,256.41 528.98,281.13 532.43,305.89 535.88,327.61 539.33,342.96 542.78,348.94 546.24,343.50 549.69,326.02 553.14,297.58 556.59,260.97 560.04,220.42 563.49,180.97 566.94,147.78 570.39,125.29 573.84,116.49 577.29,122.43 580.75,141.97 584.20,171.91 587.65,207.50 591.10,243.09 594.55,273.03 598.00,292.57 601.45,298.51 604.90,289.71 608.35,267.22 611.80,234.03 615.25,194.58 618.71,154.03 622.16,117.42 625.61,88.98 629.06,71.50 632.51,66.06 635.96,72.04 639.41,87.39 642.86,109.11 646.31,133.87 649.76,158.59 653.22,180.93 656.67,199.55 660.12,214.12 663.57,225.20 667.02,233.84 670.47,241.20 673.92,248.09 677.37,254.76 680.82,260.76 684.27,265.05 687.73,266.27 691.18,263.17 694.63,255.03 698.08,241.99 701.53,225.26 704.98,207.05 708.43,190.33 711.88,178.37 715.33,174.09 718.78,179.52 722.24,195.31 725.69,220.37 729.14,251.97 732.59,285.97 736.04,317.43 739.49,341.31 742.94,353.33 746.39,350.65 749.84,332.42 753.29,299.95 756.75,256.65 760.20,207.50 763.65,158.35 767.10,115.05 770.55,82.58 774.00,64.35 777.45,61.67 780.90,73.69 784.35,97.57 787.80,129.03 791.25,163.03 794.71,194.63 798.16,219.69 801.61,235.48 805.06,240.91 808.51,236.63 811.96,224.67 815.41,207.95 818.86,189.74 822.31,173.01 825.76,159.97 829.22,151.83 832.67,148.73 836.12,149.95 839.57,154.24 843.02,160.24 846.47,166.91 849.92,173.80 853.37,181.16 856.82,189.80 860.27,200.88 863.73,215.45 867.18,234.07 870.63,256.41 874.08,281.13 877.53,305.89 880.98,327.61 884.43,342.96 887.88,348.94 891.33,343.50 894.78,326.02 898.24,297.58 901.69,260.97 905.14,220.42 908.59,180.97 912.04,147.78 915.49,125.29 918.94,116.49 922.39,122.43 925.84,141.97 929.29,171.91 932.75,207.50 936.20,243.09 939.65,273.03 943.10,292.57 946.55,298.51 950.00,289.71"/>
</svg>
