<svg xmlns="http://www.w3.org/2000/svg" width="980" height="420" viewBox="0 0 980 420">
<rect width="100%" height="100%" fill="#fbfaf6"/>
<text x="70" y="28" font-family="Helvetica, Arial, sans-serif" font-size="22" font-weight="700" fill="#17324d">clean waveform snapshot</text>
<text x="70" y="44" font-family="Helvetica, Arial, sans-serif" font-size="12" fill="#5b6c7d">Raw DUT FFT window, seq 1, fs=100.00 Hz, n=256</text>
<rect x="70" y="50" width="880" height="315" fill="#fffdfa" stroke="#d9d2c3" stroke-width="1"/>
<line x1="70.00" y1="50" x2="70.00" y2="365" stroke="#ece6da" stroke-width="1"/>
<text x="70.00" y="398" text-anchor="middle" font-family="Helvetica, Arial, sans-serif" font-size="11" fill="#58677a">0.00</text>
<line x1="290.00" y1="50" x2="290.00" y2="365" stroke="#ece6da" stroke-width="1"/>
<text x="290.00" y="398" text-anchor="middle" font-family="Helvetica, Arial, sans-serif" font-size="11" fill="#58677a">0.64</text>
<line x1="510.00" y1="50" x2="510.00" y2="365" stroke="#ece6da" stroke-width="1"/>
<text x="510.00" y="398" text-anchor="middle" font-family="Helvetica, Arial, sans-serif" font-size="11" fill="#58677a">1.27</text>
<line x1="730.00" y1="50" x2="730.00" y2="365" stroke="#ece6da" stroke-width="1"/>
<text x="730.00" y="398" text-anchor="middle" font-family="Helvetica, Arial, sans-serif" font-size="11" fill="#58677a">1.91</text>
<line x1="950.00" y1="50" x2="950.00" y2="365" stroke="#ece6da" stroke-width="1"/>
<text x="950.00" y="398" text-anchor="middle" font-family="Helvetica, Arial, sans-serif" font-size="11" fill="#58677a">2.55</text>
<line x1="70" y1="365.00" x2="950" y2="365.00" stroke="#ece6da" stroke-width="1"/>
<text x="60" y="369.00" text-anchor="end" font-family="Helvetica, Arial, sans-serif" font-size="11" fill="#58677a">-6.07</text>
<line x1="70" y1="286.25" x2="950" y2="286.25" stroke="#ece6da" stroke-width="1"/>
<text x="60" y="290.25" text-anchor="end" font-family="Helvetica, Arial, sans-serif" font-size="11" fill="#58677a">-3.03</text>
<line x1="70" y1="207.50" x2="950" y2="207.50" stroke="#ece6da" stroke-width="1"/>
<text x="60" y="211.50" text-anchor="end" font-family="Helvetica, Arial, sans-serif" font-size="11" fill="#58677a">0.00</text>
<line x1="70" y1="128.75" x2="950" y2="128.75" stroke="#ece6da" stroke-width="1"/>
<text x="60" y="132.75" text-anchor="end" font-family="Helvetica, Arial, sans-serif" font-size="11" fill="#58677a">3.03</text>
<line x1="70" y1="50.00" x2="950" y2="50.00" stroke="#ece6da" stroke-width="1"/>
<text x="60" y="54.00" text-anchor="end" font-family="Helvetica, Arial, sans-serif" font-size="11" fill="#58677a">6.07</text>
<text x="510.00" y="414" text-anchor="middle" font-family="Helvetica, Arial, sans-serif" font-size="12" fill="#35495e">Time (s)</text>
<text x="20" y="207.50" text-anchor="middle" font-family="Helvetica, Arial, sans-serif" font-size="12" fill="#35495e" transform="rotate(-90 20 207.50)">Signal value</text>
<polyline fill="none" stroke="#0b7189" stroke-width="2" points="70.00,207.50 73.45,165.69 76.90,127.36 80.35,95.68 83.80,73.21 87.25,61.67 90.71,61.77 94.16,73.21 97.61,94.66 101.06,123.91 104.51,158.12 107.96,194.09 111.41,228.53 114.86,258.41 118.31,281.24 121.76,295.29 125.22,299.74 128.67,294.76 132.12,281.44 135.57,261.69 139.02,238.02 142.47,213.26 145.92,190.30 149.37,171.77 152.82,159.75 156.27,155.58 159.73,159.75 163.18,171.77 166.63,190.30 170.08,213.26 173.53,238.02 176.98,261.69 180.43,281.44 183.88,294.76 187.33,299.74 190.78,295.29 194.24,281.24 197.69,258.41 201.14,228.53 204.59,194.09 208.04,158.12 211.49,123.91 214.94,94.66 218.39,73.21 221.84,61.77 225.29,61.67 228.75,73.21 232.20,95.68 235.65,127.36 239.10,165.69 242.55,207.50 246.00,249.31 249.45,287.64 252.90,319.32 256.35,341.79 259.80,353.33 263.25,353.23 266.71,341.79 270.16,320.34 273.61,291.09 277.06,256.88 280.51,220.91 283.96,186.47 287.41,156.59 290.86,133.76 294.31,119.71 297.76,115.26 301.22,120.24 304.67,133.56 308.12,153.31 311.57,176.98 315.02,201.74 318.47,224.70 321.92,243.23 325.37,255.25 328.82,259.42 332.27,255.25 335.73,243.23 339.18,224.70 342.63,201.74 346.08,176.98 349.53,153.31 352.98,133.56 356.43,120.24 359.88,115.26 363.33,119.71 366.78,133.76 370.24,156.59 373.69,186.47 377.14,220.91 380.59,256.88 384.04,291.09 387.49,320.34 390.94,341.79 394.39,353.23 397.84,353.33 401.29,341.79 404.75,319.32 408.20,287.64 411.65,249.31 415.10,207.50 418.55,165.69 422.00,127.36 425.45,95.68 428.90,73.21 432.35,61.67 435.80,61.77 439.25,73.21 442.71,94.66 446.16,123.91 449.61,158.12 453.06,194.09 456.51,228.53 459.96,258.41 463.41,281.24 466.86,295.29 470.31,299.74 473.76,294.76 477.22,281.44 480.67,261.69 484.12,238.02 487.57,213.26 491.02,190.30 494.47,171.77 497.92,159.75 501.37,155.58 504.82,159.75 508.27,171.77 511.73,190.30 515.18,213.26 518.63,238.02 522.08,261.69 525.53,281.44 528.98,294.76 532.43,299.74 535.88,295.29 539.33,281.24 542.78,258.41 546.24,228.53 549.69,194.09 553.14,158.12 556.59,123.91 560.04,94.66 563.49,73.21 566.94,61.77 570.39,61.67 573.84,73.21 577.29,95.68 580.75,127.36 584.20,165.69 587.65,207.50 591.10,249.31 594.55,287.64 598.00,319.32 601.45,341.79 604.90,353.33 608.35,353.23 611.80,341.79 615.25,320.34 618.71,291.09 622.16,256.88 625.61,220.91 629.06,186.47 632.51,156.59 635.96,133.76 639.41,119.71 642.86,115.26 646.31,120.24 649.76,133.56 653.22,153.31 656.67,176.98 660.12,201.74 663.57,224.70 667.02,243.23 670.47,255.25 673.92,259.42 677.37,255.25 680.82,243.23 684.27,224.70 687.73,201.74 691.18,176.98 694.63,153.31 698.08,133.56 701.53,120.24 704.98,115.26 708.43,119.71 711.88,133.76 715.33,156.59 718.78,186.47 722.24,220.91 725.69,256.88 729.14,291.09 732.59,320.34 736.04,341.79 739.49,353.23 742.94,353.33 746.39,341.79 749.84,319.32 753.29,287.64 756.75,249.31 760.20,207.50 763.65,165.69 767.10,127.36 770.55,95.68 774.00,73.21 777.45,61.67 780.90,61.77 784.35,73.21 787.80,94.66 791.25,123.91 794.71,158.12 798.16,194.09 801.61,228.53 805.06,258.41 808.51,281.24 811.96,295.29 815.41,299.74 818.86,294.76 822.31,281.44 825.76,261.69 829.22,238.02 832.67,213.26 836.12,190.30 839.57,171.77 843.02,159.75 846.47,155.58 849.92,159.75 853.37,171.77 856.82,190.30 860.27,213.26 863.73,238.02 867.18,261.69 870.63,281.44 874.08,294.76 877.53,299.74 880.98,295.29 884.43,281.24 887.88,258.41 891.33,228.53 894.78,194.09 898.24,158.12 901.69,123.91 905.14,94.66 908.59,73.21 912.04,61.77 915.49,61.67 918.94,73.21 922.39,95.68 925.84,127.36 929.29,165.69 932.75,207.50 936.20,249.31 939.65,287.64 943.10,319.32 946.55,341.79 950.00,353.33"/>
</svg>
