<svg xmlns="http://www.w3.org/2000/svg" width="980" height="420" viewBox="0 0 980 420">
<rect width="100%" height="100%" fill="#fbfaf6"/>
<text x="70" y="28" font-family="Helvetica, Arial, sans-serif" font-size="22" font-weight="700" fill="#17324d">clean_b waveform snapshot</text>
<text x="70" y="44" font-family="Helvetica, Arial, sans-serif" font-size="12" fill="#5b6c7d">Raw DUT FFT window, seq 1, fs=100.00 Hz, n=256</text>
<rect x="70" y="50" width="880" height="315" fill="#fffdfa" stroke="#d9d2c3" stroke-width="1"/>
<line x1="70.00" y1="50" x2="70.00" y2="365" stroke="#ece6da" stroke-width="1"/>
<text x="70.00" y="398" text-anchor="middle" font-family="Helvetica, Arial, sans-serif" font-size="11" fill="#58677a">0.00</text>
<line x1="290.00" y1="50" x2="290.00" y2="365" stroke="#ece6da" stroke-width="1"/>
<text x="290.00" y="398" text-anchor="middle" font-family="Helvetica, Arial, sans-serif" font-size="11" fill="#58677a">0.64</text>
<line x1="510.00" y1="50" x2="510.00" y2="365" stroke="#ece6da" stroke-width="1"/>
<text x="510.00" y="398" text-anchor="middle" font-family="Helvetica, Arial, sans-serif" font-size="11" fill="#58677a">1.27</text>
<line x1="730.00" y1="50" x2="730.00" y2="365" stroke="#ece6da" stroke-width="1"/>
<text x="730.00" y="398" text-anchor="middle" font-family="Helvetica, Arial, sans-serif" font-size="11" fill="#58677a">1.91</text>
<line x1="950.00" y1="50" x2="950.00" y2="365" stroke="#ece6da" stroke-width="1"/>
<text x="950.00" y="398" text-anchor="middle" font-family="Helvetica, Arial, sans-serif" font-size="11" fill="#58677a">2.55</text>
<line x1="70" y1="365.00" x2="950" y2="365.00" stroke="#ece6da" stroke-width="1"/>
<text x="60" y="369.00" text-anchor="end" font-family="Helvetica, Arial, sans-serif" font-size="11" fill="#58677a">-4.65</text>
<line x1="70" y1="286.25" x2="950" y2="286.25" stroke="#ece6da" stroke-width="1"/>
<text x="60" y="290.25" text-anchor="end" font-family="Helvetica, Arial, sans-serif" font-size="11" fill="#58677a">-2.32</text>
<line x1="70" y1="207.50" x2="950" y2="207.50" stroke="#ece6da" stroke-width="1"/>
<text x="60" y="211.50" text-anchor="end" font-family="Helvetica, Arial, sans-serif" font-size="11" fill="#58677a">-0.00</text>
<line x1="70" y1="128.75" x2="950" y2="128.75" stroke="#ece6da" stroke-width="1"/>
<text x="60" y="132.75" text-anchor="end" font-family="Helvetica, Arial, sans-serif" font-size="11" fill="#58677a">2.32</text>
<line x1="70" y1="50.00" x2="950" y2="50.00" stroke="#ece6da" stroke-width="1"/>
<text x="60" y="54.00" text-anchor="end" font-family="Helvetica, Arial, sans-serif" font-size="11" fill="#58677a">4.65</text>
<text x="510.00" y="414" text-anchor="middle" font-family="Helvetica, Arial, sans-serif" font-size="12" fill="#35495e">Time (s)</text>
<text x="20" y="207.50" text-anchor="middle" font-family="Helvetica, Arial, sans-serif" font-size="12" fill="#35495e" transform="rotate(-90 20 207.50)">Signal value</text>
<polyline fill="none" stroke="#0b7189" stroke-width="2" points="70.00,207.50 73.45,145.77 76.90,96.25 80.35,67.59 83.80,62.45 87.25,76.86 90.71,101.68 94.16,125.59 97.61,138.77 101.06,136.02 104.51,118.40 107.96,92.94 111.41,70.37 114.86,61.67 118.31,74.52 121.76,110.76 125.22,165.55 128.67,228.72 132.12,287.63 135.57,330.89 139.02,351.67 142.47,349.55 145.92,330.48 149.37,304.70 152.82,283.44 156.27,275.29 159.73,283.44 163.18,304.70 166.63,330.48 170.08,349.55 173.53,351.67 176.98,330.89 180.43,287.63 183.88,228.72 187.33,165.55 190.78,110.76 194.24,74.52 197.69,61.67 201.14,70.37 204.59,92.94 208.04,118.40 211.49,136.02 214.94,138.77 218.39,125.59 221.84,101.68 225.29,76.86 228.75,62.45 232.20,67.59 235.65,96.25 239.10,145.77 242.55,207.50 246.00,269.23 249.45,318.75 252.90,347.41 256.35,352.55 259.80,338.14 263.25,313.32 266.71,289.41 270.16,276.23 273.61,278.98 277.06,296.60 280.51,322.06 283.96,344.63 287.41,353.33 290.86,340.48 294.31,304.24 297.76,249.45 301.22,186.28 304.67,127.37 308.12,84.11 311.57,63.33 315.02,65.45 318.47,84.52 321.92,110.30 325.37,131.56 328.82,139.71 332.27,131.56 335.73,110.30 339.18,84.52 342.63,65.45 346.08,63.33 349.53,84.11 352.98,127.37 356.43,186.28 359.88,249.45 363.33,304.24 366.78,340.48 370.24,353.33 373.69,344.63 377.14,322.06 380.59,296.60 384.04,278.98 387.49,276.23 390.94,289.41 394.39,313.32 397.84,338.14 401.29,352.55 404.75,347.41 408.20,318.75 411.65,269.23 415.10,207.50 418.55,145.77 422.00,96.25 425.45,67.59 428.90,62.45 432.35,76.86 435.80,101.68 439.25,125.59 442.71,138.77 446.16,136.02 449.61,118.40 453.06,92.94 456.51,70.37 459.96,61.67 463.41,74.52 466.86,110.76 470.31,165.55 473.76,228.72 477.22,287.63 480.67,330.89 484.12,351.67 487.57,349.55 491.02,330.48 494.47,304.70 497.92,283.44 501.37,275.29 504.82,283.44 508.27,304.70 511.73,330.48 515.18,349.55 518.63,351.67 522.08,330.89 525.53,287.63 528.98,228.72 532.43,165.55 535.88,110.76 539.33,74.52 542.78,61.67 546.24,70.37 549.69,92.94 553.14,118.40 556.59,136.02 560.04,138.77 563.49,125.59 566.94,101.68 570.39,76.86 573.84,62.45 577.29,67.59 580.75,96.25 584.20,145.77 587.65,207.50 591.10,269.23 594.55,318.75 598.00,347.41 601.45,352.55 604.90,338.14 608.35,313.32 611.80,289.41 615.25,276.23 618.71,278.98 622.16,296.60 625.61,322.06 629.06,344.63 632.51,353.33 635.96,340.48 639.41,304.24 642.86,249.45 646.31,186.28 649.76,127.37 653.22,84.11 656.67,63.33 660.12,65.45 663.57,84.52 667.02,110.30 670.47,131.56 673.92,139.71 677.37,131.56 680.82,110.30 684.27,84.52 687.73,65.45 691.18,63.33 694.63,84.11 698.08,127.37 701.53,186.28 704.98,249.45 708.43,304.24 711.88,340.48 715.33,353.33 718.78,344.63 722.24,322.06 725.69,296.60 729.14,278.98 732.59,276.23 736.04,289.41 739.49,313.32 742.94,338.14 746.39,352.55 749.84,347.41 753.29,318.75 756.75,269.23 760.20,207.50 763.65,145.77 767.10,96.25 770.55,67.59 774.00,62.45 777.45,76.86 780.90,101.68 784.35,125.59 787.80,138.77 791.25,136.02 794.71,118.40 798.16,92.94 801.61,70.37 805.06,61.67 808.51,74.52 811.96,110.76 815.41,165.55 818.86,228.72 822.31,287.63 825.76,330.89 829.22,351.67 832.67,349.55 836.12,330.48 839.57,304.70 843.02,283.44 846.47,275.29 849.92,283.44 853.37,304.70 856.82,330.48 860.27,349.55 863.73,351.67 867.18,330.89 870.63,287.63 874.08,228.72 877.53,165.55 880.98,110.76 884.43,74.52 887.88,61.67 891.33,70.37 894.78,92.94 898.24,118.40 901.69,136.02 905.14,138.77 908.59,125.59 912.04,101.68 915.49,76.86 918.94,62.45 922.39,67.59 925.84,96.25 929.29,145.77 932.75,207.50 936.20,269.23 939.65,318.75 943.10,347.41 946.55,352.55 950.00,338.14"/>
</svg>
