<svg xmlns="http://www.w3.org/2000/svg" width="980" height="420" viewBox="0 0 980 420">
<rect width="100%" height="100%" fill="#fbfaf6"/>
<text x="70" y="28" font-family="Helvetica, Arial, sans-serif" font-size="22" font-weight="700" fill="#17324d">clean_a FFT magnitude spectrum</text>
<text x="70" y="44" font-family="Helvetica, Arial, sans-serif" font-size="12" fill="#5b6c7d">Computed from DUT raw window, seq 38, fs=40.00 Hz</text>
<rect x="70" y="50" width="880" height="315" fill="#fffdfa" stroke="#d9d2c3" stroke-width="1"/>
<line x1="70.00" y1="50" x2="70.00" y2="365" stroke="#ece6da" stroke-width="1"/>
<text x="70.00" y="398" text-anchor="middle" font-family="Helvetica, Arial, sans-serif" font-size="11" fill="#58677a">0.00</text>
<line x1="290.00" y1="50" x2="290.00" y2="365" stroke="#ece6da" stroke-width="1"/>
<text x="290.00" y="398" text-anchor="middle" font-family="Helvetica, Arial, sans-serif" font-size="11" fill="#58677a">5.00</text>
<line x1="510.00" y1="50" x2="510.00" y2="365" stroke="#ece6da" stroke-width="1"/>
<text x="510.00" y="398" text-anchor="middle" font-family="Helvetica, Arial, sans-serif" font-size="11" fill="#58677a">10.00</text>
<line x1="730.00" y1="50" x2="730.00" y2="365" stroke="#ece6da" stroke-width="1"/>
<text x="730.00" y="398" text-anchor="middle" font-family="Helvetica, Arial, sans-serif" font-size="11" fill="#58677a">15.00</text>
<line x1="950.00" y1="50" x2="950.00" y2="365" stroke="#ece6da" stroke-width="1"/>
<text x="950.00" y="398" text-anchor="middle" font-family="Helvetica, Arial, sans-serif" font-size="11" fill="#58677a">20.00</text>
<line x1="70" y1="365.00" x2="950" y2="365.00" stroke="#ece6da" stroke-width="1"/>
<text x="60" y="369.00" text-anchor="end" font-family="Helvetica, Arial, sans-serif" font-size="11" fill="#58677a">0.00</text>
<line x1="70" y1="286.25" x2="950" y2="286.25" stroke="#ece6da" stroke-width="1"/>
<text x="60" y="290.25" text-anchor="end" font-family="Helvetica, Arial, sans-serif" font-size="11" fill="#58677a">74.32</text>
<line x1="70" y1="207.50" x2="950" y2="207.50" stroke="#ece6da" stroke-width="1"/>
<text x="60" y="211.50" text-anchor="end" font-family="Helvetica, Arial, sans-serif" font-size="11" fill="#58677a">148.65</text>
<line x1="70" y1="128.75" x2="950" y2="128.75" stroke="#ece6da" stroke-width="1"/>
<text x="60" y="132.75" text-anchor="end" font-family="Helvetica, Arial, sans-serif" font-size="11" fill="#58677a">222.97</text>
<line x1="70" y1="50.00" x2="950" y2="50.00" stroke="#ece6da" stroke-width="1"/>
<text x="60" y="54.00" text-anchor="end" font-family="Helvetica, Arial, sans-serif" font-size="11" fill="#58677a">297.30</text>
<text x="510.00" y="414" text-anchor="middle" font-family="Helvetica, Arial, sans-serif" font-size="12" fill="#35495e">Frequency (Hz)</text>
<text x="20" y="207.50" text-anchor="middle" font-family="Helvetica, Arial, sans-serif" font-size="12" fill="#35495e" transform="rotate(-90 20 207.50)">Magnitude</text>
<polyline fill="none" stroke="#d97a1d" stroke-width="2" points="70.00,364.85 76.88,364.84 83.75,364.84 90.62,364.83 97.50,364.82 104.38,364.80 111.25,364.79 118.12,364.77 125.00,364.75 131.88,364.71 138.75,364.68 145.62,364.64 152.50,364.59 159.38,364.53 166.25,364.48 173.12,364.44 180.00,364.58 186.88,364.07 193.75,323.39 200.62,223.44 207.50,279.38 214.38,361.44 221.25,364.74 228.12,364.35 235.00,364.32 241.88,364.37 248.75,364.42 255.62,364.47 262.50,364.53 269.38,364.63 276.25,364.70 283.12,237.89 290.00,73.33 296.88,241.50 303.75,364.79 310.62,364.80 317.50,364.80 324.38,364.79 331.25,364.79 338.12,364.79 345.00,364.80 351.88,364.80 358.75,364.81 365.62,364.81 372.50,364.82 379.38,364.82 386.25,364.82 393.12,364.83 400.00,364.83 406.88,364.83 413.75,364.84 420.62,364.84 427.50,364.84 434.38,364.85 441.25,364.84 448.12,364.86 455.00,364.85 461.88,364.86 468.75,364.84 475.62,364.87 482.50,364.87 489.38,364.87 496.25,364.87 503.12,364.87 510.00,364.87 516.88,364.88 523.75,364.88 530.62,364.88 537.50,364.88 544.38,364.88 551.25,364.88 558.12,364.89 565.00,364.89 571.88,364.89 578.75,364.89 585.62,364.89 592.50,364.89 599.38,364.89 606.25,364.89 613.12,364.89 620.00,364.90 626.88,364.89 633.75,364.90 640.62,364.90 647.50,364.91 654.38,364.89 661.25,364.90 668.12,364.90 675.00,364.90 681.88,364.90 688.75,364.90 695.62,364.90 702.50,364.90 709.38,364.91 716.25,364.91 723.12,364.91 730.00,364.91 736.88,364.91 743.75,364.91 750.62,364.91 757.50,364.91 764.38,364.91 771.25,364.91 778.12,364.91 785.00,364.91 791.88,364.91 798.75,364.91 805.62,364.91 812.50,364.91 819.38,364.91 826.25,364.91 833.12,364.92 840.00,364.91 846.88,364.91 853.75,364.91 860.62,364.91 867.50,364.91 874.38,364.91 881.25,364.91 888.12,364.91 895.00,364.91 901.88,364.92 908.75,364.91 915.62,364.92 922.50,364.91 929.38,364.91 936.25,364.91 943.12,364.92 950.00,364.91"/>
<circle cx="290.00" cy="73.33" r="4.5" fill="#a12a2a"/>
<text x="296.00" y="65.33" font-family="Helvetica, Arial, sans-serif" font-size="11" fill="#7a1c1c">5.00 Hz</text>
<circle cx="200.62" cy="223.44" r="4.5" fill="#a12a2a"/>
<text x="206.62" y="215.44" font-family="Helvetica, Arial, sans-serif" font-size="11" fill="#7a1c1c">2.97 Hz</text>
<circle cx="283.12" cy="237.89" r="4.5" fill="#a12a2a"/>
<text x="289.12" y="229.89" font-family="Helvetica, Arial, sans-serif" font-size="11" fill="#7a1c1c">4.84 Hz</text>
</svg>
