<svg xmlns="http://www.w3.org/2000/svg" width="980" height="420" viewBox="0 0 980 420">
<rect width="100%" height="100%" fill="#fbfaf6"/>
<text x="70" y="28" font-family="Helvetica, Arial, sans-serif" font-size="22" font-weight="700" fill="#17324d">clean_a waveform snapshot</text>
<text x="70" y="44" font-family="Helvetica, Arial, sans-serif" font-size="12" fill="#5b6c7d">Raw DUT FFT window, seq 38, fs=40.00 Hz, n=256</text>
<rect x="70" y="50" width="880" height="315" fill="#fffdfa" stroke="#d9d2c3" stroke-width="1"/>
<line x1="70.00" y1="50" x2="70.00" y2="365" stroke="#ece6da" stroke-width="1"/>
<text x="70.00" y="398" text-anchor="middle" font-family="Helvetica, Arial, sans-serif" font-size="11" fill="#58677a">0.00</text>
<line x1="290.00" y1="50" x2="290.00" y2="365" stroke="#ece6da" stroke-width="1"/>
<text x="290.00" y="398" text-anchor="middle" font-family="Helvetica, Arial, sans-serif" font-size="11" fill="#58677a">1.59</text>
<line x1="510.00" y1="50" x2="510.00" y2="365" stroke="#ece6da" stroke-width="1"/>
<text x="510.00" y="398" text-anchor="middle" font-family="Helvetica, Arial, sans-serif" font-size="11" fill="#58677a">3.19</text>
<line x1="730.00" y1="50" x2="730.00" y2="365" stroke="#ece6da" stroke-width="1"/>
<text x="730.00" y="398" text-anchor="middle" font-family="Helvetica, Arial, sans-serif" font-size="11" fill="#58677a">4.78</text>
<line x1="950.00" y1="50" x2="950.00" y2="365" stroke="#ece6da" stroke-width="1"/>
<text x="950.00" y="398" text-anchor="middle" font-family="Helvetica, Arial, sans-serif" font-size="11" fill="#58677a">6.38</text>
<line x1="70" y1="365.00" x2="950" y2="365.00" stroke="#ece6da" stroke-width="1"/>
<text x="60" y="369.00" text-anchor="end" font-family="Helvetica, Arial, sans-serif" font-size="11" fill="#58677a">-6.11</text>
<line x1="70" y1="286.25" x2="950" y2="286.25" stroke="#ece6da" stroke-width="1"/>
<text x="60" y="290.25" text-anchor="end" font-family="Helvetica, Arial, sans-serif" font-size="11" fill="#58677a">-3.05</text>
<line x1="70" y1="207.50" x2="950" y2="207.50" stroke="#ece6da" stroke-width="1"/>
<text x="60" y="211.50" text-anchor="end" font-family="Helvetica, Arial, sans-serif" font-size="11" fill="#58677a">0.00</text>
<line x1="70" y1="128.75" x2="950" y2="128.75" stroke="#ece6da" stroke-width="1"/>
<text x="60" y="132.75" text-anchor="end" font-family="Helvetica, Arial, sans-serif" font-size="11" fill="#58677a">3.05</text>
<line x1="70" y1="50.00" x2="950" y2="50.00" stroke="#ece6da" stroke-width="1"/>
<text x="60" y="54.00" text-anchor="end" font-family="Helvetica, Arial, sans-serif" font-size="11" fill="#58677a">6.11</text>
<text x="510.00" y="414" text-anchor="middle" font-family="Helvetica, Arial, sans-serif" font-size="12" fill="#35495e">Time (s)</text>
<text x="20" y="207.50" text-anchor="middle" font-family="Helvetica, Arial, sans-serif" font-size="12" fill="#35495e" transform="rotate(-90 20 207.50)">Signal value</text>
<polyline fill="none" stroke="#0b7189" stroke-width="2" points="70.00,204.32 73.45,301.43 76.90,351.91 80.35,333.05 83.80,259.37 87.25,173.45 90.71,121.08 94.16,125.47 97.61,175.22 101.06,232.97 104.51,259.07 107.96,236.02 111.41,179.27 114.86,127.67 118.31,119.56 121.76,168.52 125.22,253.54 128.67,329.53 132.12,352.86 135.57,306.62 139.02,211.25 142.47,114.01 145.92,63.20 149.37,81.73 152.82,155.23 156.27,241.25 159.73,293.84 163.18,289.72 166.63,240.12 170.08,182.30 173.53,155.98 176.98,178.80 180.43,235.48 183.88,287.20 187.33,295.59 190.78,246.85 194.24,161.94 197.69,85.79 201.14,62.14 204.59,108.04 208.04,203.27 211.49,300.63 214.94,351.76 218.39,333.56 221.84,260.24 225.29,174.15 228.75,121.33 232.20,125.17 235.65,174.63 239.10,232.51 242.55,259.05 246.00,236.47 249.45,179.89 252.90,128.01 256.35,119.35 259.80,167.83 263.25,252.67 266.71,328.98 270.16,352.96 273.61,307.36 277.06,212.29 280.51,114.82 283.96,63.38 287.41,81.23 290.86,154.42 294.31,240.51 297.76,293.60 301.22,290.02 304.67,240.71 308.12,182.76 311.57,156.00 315.02,178.35 318.47,234.86 321.92,286.84 325.37,295.78 328.82,247.58 332.27,162.82 335.73,86.34 339.18,62.03 342.63,107.30 346.08,202.25 349.53,299.84 352.98,351.58 356.43,334.06 359.88,261.05 363.33,174.91 366.78,121.57 370.24,124.85 373.69,174.02 377.14,232.04 380.59,259.02 384.04,236.90 387.49,180.48 390.94,128.37 394.39,119.16 397.84,167.12 401.29,251.79 404.75,328.42 408.20,353.07 411.65,308.12 415.10,213.31 418.55,115.61 422.00,63.54 425.45,80.77 428.90,153.55 432.35,239.76 435.80,293.33 439.25,290.34 442.71,241.32 446.16,183.24 449.61,156.03 453.06,177.92 456.51,234.26 459.96,286.54 463.41,295.98 466.86,248.28 470.31,163.69 473.76,86.90 477.22,61.92 480.67,106.54 484.12,201.21 487.57,299.03 491.02,351.40 494.47,334.52 497.92,261.91 501.37,175.66 504.82,121.84 508.27,124.56 511.73,173.43 515.18,231.56 518.63,258.99 522.08,237.34 525.53,181.05 528.98,128.68 532.43,118.96 535.88,166.40 539.33,250.92 542.78,327.86 546.24,353.16 549.69,308.85 553.14,214.36 556.59,116.42 560.04,63.73 563.49,80.28 566.94,152.70 570.39,239.01 573.84,293.08 577.29,290.62 580.75,241.91 584.20,183.71 587.65,156.06 591.10,177.48 594.55,233.69 598.00,286.17 601.45,296.18 604.90,248.99 608.35,164.57 611.80,87.46 615.25,61.83 618.71,105.81 622.16,200.19 625.61,298.21 629.06,351.21 632.51,335.01 635.96,262.78 639.41,176.41 642.86,122.10 646.31,124.25 649.76,172.82 653.22,231.09 656.67,258.96 660.12,237.74 663.57,181.65 667.02,129.05 670.47,118.79 673.92,165.71 677.37,250.04 680.82,327.30 684.27,353.26 687.73,309.60 691.18,215.38 694.63,117.18 698.08,63.91 701.53,79.79 704.98,151.83 708.43,238.25 711.88,292.81 715.33,290.93 718.78,242.52 722.24,184.20 725.69,156.10 729.14,177.09 732.59,233.09 736.04,285.82 739.49,296.35 742.94,249.69 746.39,165.44 749.84,88.03 753.29,61.74 756.75,105.06 760.20,199.14 763.65,297.45 767.10,351.03 770.55,335.50 774.00,263.64 777.45,177.17 780.90,122.38 784.35,123.97 787.80,172.23 791.25,230.60 794.71,258.92 798.16,238.17 801.61,182.25 805.06,129.40 808.51,118.60 811.96,165.00 815.41,249.16 818.86,326.73 822.31,353.33 825.76,310.35 829.22,216.37 832.67,118.00 836.12,64.12 839.57,79.31 843.02,150.98 846.47,237.50 849.92,292.52 853.37,291.21 856.82,243.11 860.27,184.68 863.73,156.14 867.18,176.66 870.63,232.47 874.08,285.44 877.53,296.54 880.98,250.40 884.43,166.32 887.88,88.60 891.33,61.67 894.78,104.34 898.24,198.17 901.69,296.63 905.14,350.82 908.59,335.97 912.04,264.50 915.49,177.93 918.94,122.64 922.39,123.67 925.84,171.64 929.29,230.16 932.75,258.88 936.20,238.59 939.65,182.87 943.10,129.78 946.55,118.44 950.00,164.29"/>
</svg>
