<svg xmlns="http://www.w3.org/2000/svg" width="980" height="420" viewBox="0 0 980 420">
<rect width="100%" height="100%" fill="#fbfaf6"/>
<text x="70" y="28" font-family="Helvetica, Arial, sans-serif" font-size="22" font-weight="700" fill="#17324d">clean_a adaptive sampling history</text>
<text x="70" y="44" font-family="Helvetica, Arial, sans-serif" font-size="12" fill="#5b6c7d">11 FFT updates captured from the DUT</text>
<rect x="70" y="50" width="880" height="315" fill="#fffdfa" stroke="#d9d2c3" stroke-width="1"/>
<line x1="70.00" y1="50" x2="70.00" y2="365" stroke="#ece6da" stroke-width="1"/>
<text x="70.00" y="398" text-anchor="middle" font-family="Helvetica, Arial, sans-serif" font-size="11" fill="#58677a">1.00</text>
<line x1="290.00" y1="50" x2="290.00" y2="365" stroke="#ece6da" stroke-width="1"/>
<text x="290.00" y="398" text-anchor="middle" font-family="Helvetica, Arial, sans-serif" font-size="11" fill="#58677a">3.50</text>
<line x1="510.00" y1="50" x2="510.00" y2="365" stroke="#ece6da" stroke-width="1"/>
<text x="510.00" y="398" text-anchor="middle" font-family="Helvetica, Arial, sans-serif" font-size="11" fill="#58677a">6.00</text>
<line x1="730.00" y1="50" x2="730.00" y2="365" stroke="#ece6da" stroke-width="1"/>
<text x="730.00" y="398" text-anchor="middle" font-family="Helvetica, Arial, sans-serif" font-size="11" fill="#58677a">8.50</text>
<line x1="950.00" y1="50" x2="950.00" y2="365" stroke="#ece6da" stroke-width="1"/>
<text x="950.00" y="398" text-anchor="middle" font-family="Helvetica, Arial, sans-serif" font-size="11" fill="#58677a">11.00</text>
<line x1="70" y1="365.00" x2="950" y2="365.00" stroke="#ece6da" stroke-width="1"/>
<text x="60" y="369.00" text-anchor="end" font-family="Helvetica, Arial, sans-serif" font-size="11" fill="#58677a">0.00</text>
<line x1="70" y1="286.25" x2="950" y2="286.25" stroke="#ece6da" stroke-width="1"/>
<text x="60" y="290.25" text-anchor="end" font-family="Helvetica, Arial, sans-serif" font-size="11" fill="#58677a">11.50</text>
<line x1="70" y1="207.50" x2="950" y2="207.50" stroke="#ece6da" stroke-width="1"/>
<text x="60" y="211.50" text-anchor="end" font-family="Helvetica, Arial, sans-serif" font-size="11" fill="#58677a">23.00</text>
<line x1="70" y1="128.75" x2="950" y2="128.75" stroke="#ece6da" stroke-width="1"/>
<text x="60" y="132.75" text-anchor="end" font-family="Helvetica, Arial, sans-serif" font-size="11" fill="#58677a">34.50</text>
<line x1="70" y1="50.00" x2="950" y2="50.00" stroke="#ece6da" stroke-width="1"/>
<text x="60" y="54.00" text-anchor="end" font-family="Helvetica, Arial, sans-serif" font-size="11" fill="#58677a">46.00</text>
<text x="510.00" y="414" text-anchor="middle" font-family="Helvetica, Arial, sans-serif" font-size="12" fill="#35495e">FFT update index</text>
<text x="20" y="207.50" text-anchor="middle" font-family="Helvetica, Arial, sans-serif" font-size="12" fill="#35495e" transform="rotate(-90 20 207.50)">Frequency (Hz)</text>
<polyline fill="none" stroke="#155e63" stroke-width="2.5" points="70.00,91.09 158.00,91.09 246.00,91.09 334.00,91.09 422.00,91.09 510.00,91.09 598.00,91.09 686.00,91.09 774.00,91.09 862.00,91.09 950.00,91.09"/>
<polyline fill="none" stroke="#ef7d00" stroke-width="2" stroke-dasharray="8 6" points="70.00,91.09 158.00,91.09 246.00,91.09 334.00,91.09 422.00,91.09 510.00,91.09 598.00,91.09 686.00,91.09 774.00,91.09 862.00,91.09 950.00,91.09"/>
<line x1="70" y1="91.09" x2="950" y2="91.09" stroke="#7b8794" stroke-dasharray="4 6" stroke-width="1.5"/>
<text x="944" y="85.09" text-anchor="end" font-family="Helvetica, Arial, sans-serif" font-size="11" fill="#58677a">40 Hz target</text>
<rect x="750" y="58" width="180" height="52" rx="8" fill="#fffdfa" stroke="#d9d2c3"/>
<line x1="766" y1="74" x2="806" y2="74" stroke="#155e63" stroke-width="2.5"/>
<text x="814" y="78" font-family="Helvetica, Arial, sans-serif" font-size="11" fill="#35495e">adaptive fs</text>
<line x1="766" y1="94" x2="806" y2="94" stroke="#ef7d00" stroke-width="2" stroke-dasharray="8 6"/>
<text x="814" y="98" font-family="Helvetica, Arial, sans-serif" font-size="11" fill="#35495e">8x policy</text>
</svg>
