<svg xmlns="http://www.w3.org/2000/svg" width="980" height="420" viewBox="0 0 980 420">
<rect width="100%" height="100%" fill="#fbfaf6"/>
<text x="70" y="28" font-family="Helvetica, Arial, sans-serif" font-size="22" font-weight="700" fill="#17324d">spikes FFT magnitude spectrum</text>
<text x="70" y="44" font-family="Helvetica, Arial, sans-serif" font-size="12" fill="#5b6c7d">Computed from DUT raw window, seq 1, fs=100.00 Hz</text>
<rect x="70" y="50" width="880" height="315" fill="#fffdfa" stroke="#d9d2c3" stroke-width="1"/>
<line x1="70.00" y1="50" x2="70.00" y2="365" stroke="#ece6da" stroke-width="1"/>
<text x="70.00" y="398" text-anchor="middle" font-family="Helvetica, Arial, sans-serif" font-size="11" fill="#58677a">0.00</text>
<line x1="290.00" y1="50" x2="290.00" y2="365" stroke="#ece6da" stroke-width="1"/>
<text x="290.00" y="398" text-anchor="middle" font-family="Helvetica, Arial, sans-serif" font-size="11" fill="#58677a">12.50</text>
<line x1="510.00" y1="50" x2="510.00" y2="365" stroke="#ece6da" stroke-width="1"/>
<text x="510.00" y="398" text-anchor="middle" font-family="Helvetica, Arial, sans-serif" font-size="11" fill="#58677a">25.00</text>
<line x1="730.00" y1="50" x2="730.00" y2="365" stroke="#ece6da" stroke-width="1"/>
<text x="730.00" y="398" text-anchor="middle" font-family="Helvetica, Arial, sans-serif" font-size="11" fill="#58677a">37.50</text>
<line x1="950.00" y1="50" x2="950.00" y2="365" stroke="#ece6da" stroke-width="1"/>
<text x="950.00" y="398" text-anchor="middle" font-family="Helvetica, Arial, sans-serif" font-size="11" fill="#58677a">50.00</text>
<line x1="70" y1="365.00" x2="950" y2="365.00" stroke="#ece6da" stroke-width="1"/>
<text x="60" y="369.00" text-anchor="end" font-family="Helvetica, Arial, sans-serif" font-size="11" fill="#58677a">0.00</text>
<line x1="70" y1="286.25" x2="950" y2="286.25" stroke="#ece6da" stroke-width="1"/>
<text x="60" y="290.25" text-anchor="end" font-family="Helvetica, Arial, sans-serif" font-size="11" fill="#58677a">69.04</text>
<line x1="70" y1="207.50" x2="950" y2="207.50" stroke="#ece6da" stroke-width="1"/>
<text x="60" y="211.50" text-anchor="end" font-family="Helvetica, Arial, sans-serif" font-size="11" fill="#58677a">138.08</text>
<line x1="70" y1="128.75" x2="950" y2="128.75" stroke="#ece6da" stroke-width="1"/>
<text x="60" y="132.75" text-anchor="end" font-family="Helvetica, Arial, sans-serif" font-size="11" fill="#58677a">207.11</text>
<line x1="70" y1="50.00" x2="950" y2="50.00" stroke="#ece6da" stroke-width="1"/>
<text x="60" y="54.00" text-anchor="end" font-family="Helvetica, Arial, sans-serif" font-size="11" fill="#58677a">276.15</text>
<text x="510.00" y="414" text-anchor="middle" font-family="Helvetica, Arial, sans-serif" font-size="12" fill="#35495e">Frequency (Hz)</text>
<text x="20" y="207.50" text-anchor="middle" font-family="Helvetica, Arial, sans-serif" font-size="12" fill="#35495e" transform="rotate(-90 20 207.50)">Magnitude</text>
<polyline fill="none" stroke="#d97a1d" stroke-width="2" points="70.00,364.86 76.88,355.04 83.75,348.19 90.62,360.71 97.50,349.99 104.38,359.50 111.25,342.39 118.12,239.45 125.00,212.36 131.88,325.36 138.75,353.11 145.62,360.63 152.50,204.17 159.38,73.33 166.25,285.93 173.12,351.83 180.00,352.49 186.88,345.47 193.75,333.71 200.62,345.80 207.50,356.92 214.38,342.82 221.25,346.78 228.12,344.15 235.00,333.22 241.88,342.43 248.75,344.31 255.62,343.64 262.50,339.50 269.38,338.77 276.25,338.94 283.12,335.50 290.00,343.53 296.88,338.71 303.75,333.53 310.62,340.11 317.50,336.22 324.38,330.12 331.25,337.77 338.12,339.24 345.00,337.71 351.88,339.16 358.75,337.92 365.62,320.56 372.50,336.81 379.38,344.40 386.25,336.83 393.12,332.26 400.00,331.24 406.88,332.05 413.75,342.73 420.62,354.81 427.50,340.35 434.38,325.05 441.25,332.35 448.12,340.25 455.00,348.66 461.88,358.14 468.75,337.03 475.62,327.93 482.50,336.68 489.38,357.03 496.25,355.45 503.12,353.16 510.00,338.98 516.88,326.85 523.75,346.31 530.62,361.89 537.50,354.52 544.38,343.12 551.25,341.18 558.12,342.87 565.00,352.32 571.88,354.69 578.75,357.52 585.62,340.40 592.50,350.91 599.38,352.17 606.25,354.84 613.12,349.53 620.00,354.99 626.88,343.92 633.75,355.01 640.62,360.64 647.50,352.03 654.38,355.36 661.25,355.32 668.12,350.93 675.00,360.50 681.88,352.19 688.75,357.39 695.62,355.82 702.50,350.61 709.38,355.74 716.25,349.34 723.12,344.31 730.00,358.75 736.88,350.49 743.75,345.84 750.62,351.88 757.50,346.20 764.38,343.69 771.25,349.94 778.12,347.02 785.00,342.19 791.88,344.89 798.75,348.37 805.62,345.32 812.50,335.93 819.38,338.11 826.25,339.87 833.12,350.05 840.00,353.02 846.88,342.06 853.75,326.00 860.62,338.48 867.50,346.28 874.38,341.39 881.25,345.54 888.12,333.86 895.00,322.78 901.88,338.75 908.75,352.54 915.62,346.46 922.50,333.40 929.38,328.34 936.25,327.46 943.12,338.23 950.00,357.51"/>
<circle cx="159.38" cy="73.33" r="4.5" fill="#a12a2a"/>
<text x="165.38" y="65.33" font-family="Helvetica, Arial, sans-serif" font-size="11" fill="#7a1c1c">5.08 Hz</text>
<circle cx="152.50" cy="204.17" r="4.5" fill="#a12a2a"/>
<text x="158.50" y="196.17" font-family="Helvetica, Arial, sans-serif" font-size="11" fill="#7a1c1c">4.69 Hz</text>
<circle cx="125.00" cy="212.36" r="4.5" fill="#a12a2a"/>
<text x="131.00" y="204.36" font-family="Helvetica, Arial, sans-serif" font-size="11" fill="#7a1c1c">3.12 Hz</text>
</svg>
