<svg xmlns="http://www.w3.org/2000/svg" width="980" height="420" viewBox="0 0 980 420">
<rect width="100%" height="100%" fill="#fbfaf6"/>
<text x="70" y="28" font-family="Helvetica, Arial, sans-serif" font-size="22" font-weight="700" fill="#17324d">spikes waveform snapshot</text>
<text x="70" y="44" font-family="Helvetica, Arial, sans-serif" font-size="12" fill="#5b6c7d">Raw DUT FFT window, seq 1, fs=100.00 Hz, n=256</text>
<rect x="70" y="50" width="880" height="315" fill="#fffdfa" stroke="#d9d2c3" stroke-width="1"/>
<line x1="70.00" y1="50" x2="70.00" y2="365" stroke="#ece6da" stroke-width="1"/>
<text x="70.00" y="398" text-anchor="middle" font-family="Helvetica, Arial, sans-serif" font-size="11" fill="#58677a">0.00</text>
<line x1="290.00" y1="50" x2="290.00" y2="365" stroke="#ece6da" stroke-width="1"/>
<text x="290.00" y="398" text-anchor="middle" font-family="Helvetica, Arial, sans-serif" font-size="11" fill="#58677a">0.64</text>
<line x1="510.00" y1="50" x2="510.00" y2="365" stroke="#ece6da" stroke-width="1"/>
<text x="510.00" y="398" text-anchor="middle" font-family="Helvetica, Arial, sans-serif" font-size="11" fill="#58677a">1.27</text>
<line x1="730.00" y1="50" x2="730.00" y2="365" stroke="#ece6da" stroke-width="1"/>
<text x="730.00" y="398" text-anchor="middle" font-family="Helvetica, Arial, sans-serif" font-size="11" fill="#58677a">1.91</text>
<line x1="950.00" y1="50" x2="950.00" y2="365" stroke="#ece6da" stroke-width="1"/>
<text x="950.00" y="398" text-anchor="middle" font-family="Helvetica, Arial, sans-serif" font-size="11" fill="#58677a">2.55</text>
<line x1="70" y1="365.00" x2="950" y2="365.00" stroke="#ece6da" stroke-width="1"/>
<text x="60" y="369.00" text-anchor="end" font-family="Helvetica, Arial, sans-serif" font-size="11" fill="#58677a">-17.67</text>
<line x1="70" y1="286.25" x2="950" y2="286.25" stroke="#ece6da" stroke-width="1"/>
<text x="60" y="290.25" text-anchor="end" font-family="Helvetica, Arial, sans-serif" font-size="11" fill="#58677a">-10.58</text>
<line x1="70" y1="207.50" x2="950" y2="207.50" stroke="#ece6da" stroke-width="1"/>
<text x="60" y="211.50" text-anchor="end" font-family="Helvetica, Arial, sans-serif" font-size="11" fill="#58677a">-3.49</text>
<line x1="70" y1="128.75" x2="950" y2="128.75" stroke="#ece6da" stroke-width="1"/>
<text x="60" y="132.75" text-anchor="end" font-family="Helvetica, Arial, sans-serif" font-size="11" fill="#58677a">3.60</text>
<line x1="70" y1="50.00" x2="950" y2="50.00" stroke="#ece6da" stroke-width="1"/>
<text x="60" y="54.00" text-anchor="end" font-family="Helvetica, Arial, sans-serif" font-size="11" fill="#58677a">10.70</text>
<text x="510.00" y="414" text-anchor="middle" font-family="Helvetica, Arial, sans-serif" font-size="12" fill="#35495e">Time (s)</text>
<text x="20" y="207.50" text-anchor="middle" font-family="Helvetica, Arial, sans-serif" font-size="12" fill="#35495e" transform="rotate(-90 20 207.50)">Signal value</text>
<polyline fill="none" stroke="#0b7189" stroke-width="2" points="70.00,170.18 73.45,148.97 76.90,139.20 80.35,121.97 83.80,114.14 87.25,105.15 90.71,107.31 94.16,112.59 97.61,117.45 101.06,132.76 104.51,144.24 107.96,160.31 111.41,290.00 114.86,194.32 118.31,201.44 121.76,206.16 125.22,209.88 128.67,209.87 132.12,200.94 135.57,194.12 139.02,182.71 142.47,168.17 145.92,160.82 149.37,156.88 152.82,147.54 156.27,147.36 159.73,149.22 163.18,64.53 166.63,158.47 170.08,171.34 173.53,181.06 176.98,188.45 180.43,205.11 183.88,204.11 187.33,207.12 190.78,205.11 194.24,201.95 197.69,190.88 201.14,180.41 204.59,162.51 208.04,147.40 211.49,130.06 214.94,123.94 218.39,114.46 221.84,103.44 225.29,105.54 228.75,113.63 232.20,123.14 235.65,135.73 239.10,154.84 242.55,167.32 246.00,185.74 249.45,202.30 252.90,215.39 256.35,229.34 259.80,226.30 263.25,229.87 266.71,225.22 270.16,212.31 273.61,207.08 277.06,191.75 280.51,175.48 283.96,159.07 287.41,147.89 290.86,135.55 294.31,135.34 297.76,126.37 301.22,136.00 304.67,139.37 308.12,143.49 311.57,158.87 315.02,165.14 318.47,177.14 321.92,181.23 325.37,188.51 328.82,187.06 332.27,186.53 335.73,186.09 339.18,173.73 342.63,164.78 346.08,157.41 349.53,145.66 352.98,137.33 356.43,133.22 359.88,218.10 363.33,130.50 366.78,136.35 370.24,149.53 373.69,163.66 377.14,175.99 380.59,187.55 384.04,205.52 387.49,217.50 390.94,224.37 394.39,235.78 397.84,228.93 401.29,226.06 404.75,217.89 408.20,200.82 411.65,184.43 415.10,171.07 418.55,148.15 422.00,134.19 425.45,119.97 428.90,112.35 432.35,106.70 435.80,101.75 439.25,112.15 442.71,121.55 446.16,133.22 449.61,145.58 453.06,162.60 456.51,181.16 459.96,194.21 463.41,199.99 466.86,205.36 470.31,210.22 473.76,204.91 477.22,201.39 480.67,192.76 484.12,181.76 487.57,172.47 491.02,161.37 494.47,154.65 497.92,145.97 501.37,146.95 504.82,147.54 508.27,152.31 511.73,158.18 515.18,173.43 518.63,180.13 522.08,317.30 525.53,202.28 528.98,206.02 532.43,71.43 535.88,206.76 539.33,201.18 542.78,191.86 546.24,178.75 549.69,160.13 553.14,143.00 556.59,130.56 560.04,122.49 563.49,114.34 566.94,107.76 570.39,103.11 573.84,111.63 577.29,123.24 580.75,134.41 584.20,148.96 587.65,168.66 591.10,188.11 594.55,201.46 598.00,219.20 601.45,229.20 604.90,232.83 608.35,224.23 611.80,227.08 615.25,216.21 618.71,205.11 622.16,191.93 625.61,176.80 629.06,159.91 632.51,143.87 635.96,134.37 639.41,132.22 642.86,132.29 646.31,132.09 649.76,137.47 653.22,146.64 656.67,156.06 660.12,167.93 663.57,176.67 667.02,181.50 670.47,188.34 673.92,191.18 677.37,191.37 680.82,87.10 684.27,172.87 687.73,170.09 691.18,155.40 694.63,148.82 698.08,137.79 701.53,130.89 704.98,130.55 708.43,128.52 711.88,129.68 715.33,147.38 718.78,160.70 722.24,176.49 725.69,190.68 729.14,202.96 732.59,217.65 736.04,220.86 739.49,230.08 742.94,232.42 746.39,223.95 749.84,218.63 753.29,201.39 756.75,184.29 760.20,166.46 763.65,153.00 767.10,134.29 770.55,122.28 774.00,111.17 777.45,106.36 780.90,107.48 784.35,107.76 787.80,119.24 791.25,134.42 794.71,151.31 798.16,159.85 801.61,178.82 805.06,190.33 808.51,350.47 811.96,209.24 815.41,207.15 818.86,206.59 822.31,200.64 825.76,191.57 829.22,181.78 832.67,166.78 836.12,160.72 839.57,154.99 843.02,146.30 846.47,146.71 849.92,147.87 853.37,154.62 856.82,159.02 860.27,170.53 863.73,180.98 867.18,190.11 870.63,201.75 874.08,203.63 877.53,206.19 880.98,208.52 884.43,200.04 887.88,186.31 891.33,176.87 894.78,160.07 898.24,147.54 901.69,131.83 905.14,122.30 908.59,111.10 912.04,103.45 915.49,107.21 918.94,109.59 922.39,120.87 925.84,135.50 929.29,145.20 932.75,167.73 936.20,188.82 939.65,201.55 943.10,216.12 946.55,227.89 950.00,229.89"/>
</svg>
