<svg xmlns="http://www.w3.org/2000/svg" width="980" height="420" viewBox="0 0 980 420">
<rect width="100%" height="100%" fill="#fbfaf6"/>
<text x="70" y="28" font-family="Helvetica, Arial, sans-serif" font-size="22" font-weight="700" fill="#17324d">noise waveform snapshot</text>
<text x="70" y="44" font-family="Helvetica, Arial, sans-serif" font-size="12" fill="#5b6c7d">Raw DUT FFT window, seq 1, fs=100.00 Hz, n=256</text>
<rect x="70" y="50" width="880" height="315" fill="#fffdfa" stroke="#d9d2c3" stroke-width="1"/>
<line x1="70.00" y1="50" x2="70.00" y2="365" stroke="#ece6da" stroke-width="1"/>
<text x="70.00" y="398" text-anchor="middle" font-family="Helvetica, Arial, sans-serif" font-size="11" fill="#58677a">0.00</text>
<line x1="290.00" y1="50" x2="290.00" y2="365" stroke="#ece6da" stroke-width="1"/>
<text x="290.00" y="398" text-anchor="middle" font-family="Helvetica, Arial, sans-serif" font-size="11" fill="#58677a">0.64</text>
<line x1="510.00" y1="50" x2="510.00" y2="365" stroke="#ece6da" stroke-width="1"/>
<text x="510.00" y="398" text-anchor="middle" font-family="Helvetica, Arial, sans-serif" font-size="11" fill="#58677a">1.27</text>
<line x1="730.00" y1="50" x2="730.00" y2="365" stroke="#ece6da" stroke-width="1"/>
<text x="730.00" y="398" text-anchor="middle" font-family="Helvetica, Arial, sans-serif" font-size="11" fill="#58677a">1.91</text>
<line x1="950.00" y1="50" x2="950.00" y2="365" stroke="#ece6da" stroke-width="1"/>
<text x="950.00" y="398" text-anchor="middle" font-family="Helvetica, Arial, sans-serif" font-size="11" fill="#58677a">2.55</text>
<line x1="70" y1="365.00" x2="950" y2="365.00" stroke="#ece6da" stroke-width="1"/>
<text x="60" y="369.00" text-anchor="end" font-family="Helvetica, Arial, sans-serif" font-size="11" fill="#58677a">-6.52</text>
<line x1="70" y1="286.25" x2="950" y2="286.25" stroke="#ece6da" stroke-width="1"/>
<text x="60" y="290.25" text-anchor="end" font-family="Helvetica, Arial, sans-serif" font-size="11" fill="#58677a">-3.26</text>
<line x1="70" y1="207.50" x2="950" y2="207.50" stroke="#ece6da" stroke-width="1"/>
<text x="60" y="211.50" text-anchor="end" font-family="Helvetica, Arial, sans-serif" font-size="11" fill="#58677a">0.00</text>
<line x1="70" y1="128.75" x2="950" y2="128.75" stroke="#ece6da" stroke-width="1"/>
<text x="60" y="132.75" text-anchor="end" font-family="Helvetica, Arial, sans-serif" font-size="11" fill="#58677a">3.26</text>
<line x1="70" y1="50.00" x2="950" y2="50.00" stroke="#ece6da" stroke-width="1"/>
<text x="60" y="54.00" text-anchor="end" font-family="Helvetica, Arial, sans-serif" font-size="11" fill="#58677a">6.52</text>
<text x="510.00" y="414" text-anchor="middle" font-family="Helvetica, Arial, sans-serif" font-size="12" fill="#35495e">Time (s)</text>
<text x="20" y="207.50" text-anchor="middle" font-family="Helvetica, Arial, sans-serif" font-size="12" fill="#35495e" transform="rotate(-90 20 207.50)">Signal value</text>
<polyline fill="none" stroke="#0b7189" stroke-width="2" points="70.00,210.56 73.45,164.42 76.90,143.16 80.35,105.66 83.80,88.62 87.25,69.05 90.71,73.75 94.16,85.26 97.61,95.82 101.06,129.14 104.51,154.13 107.96,189.09 111.41,227.14 114.86,263.10 118.31,278.59 121.76,288.87 125.22,296.96 128.67,296.94 132.12,277.51 135.57,262.67 139.02,237.84 142.47,206.21 145.92,190.20 149.37,181.62 152.82,161.31 156.27,160.91 159.73,164.97 163.18,176.78 166.63,185.10 170.08,213.10 173.53,234.25 176.98,250.32 180.43,286.58 183.88,284.40 187.33,290.96 190.78,286.58 194.24,279.70 197.69,255.63 201.14,232.84 204.59,193.87 208.04,161.00 211.49,123.27 214.94,109.94 218.39,89.33 221.84,65.33 225.29,69.91 228.75,87.51 232.20,108.22 235.65,135.61 239.10,177.18 242.55,204.36 246.00,244.42 249.45,280.47 252.90,308.95 256.35,339.30 259.80,332.70 263.25,340.46 266.71,330.35 270.16,302.25 273.61,290.87 277.06,257.51 280.51,222.11 283.96,186.40 287.41,162.07 290.86,135.22 294.31,134.77 297.76,115.25 301.22,136.20 304.67,143.52 308.12,152.50 311.57,185.96 315.02,199.60 318.47,225.72 321.92,234.62 325.37,250.45 328.82,247.31 332.27,246.16 335.73,245.19 339.18,218.31 342.63,198.81 346.08,182.78 349.53,157.22 352.98,139.09 356.43,130.15 359.88,130.10 363.33,124.23 366.78,136.97 370.24,165.63 373.69,196.39 377.14,223.22 380.59,248.37 384.04,287.48 387.49,313.54 390.94,328.49 394.39,353.33 397.84,338.42 401.29,332.16 404.75,314.39 408.20,277.24 411.65,241.58 415.10,212.50 418.55,162.62 422.00,132.25 425.45,101.31 428.90,84.73 432.35,72.44 435.80,61.67 439.25,84.30 442.71,104.76 446.16,130.15 449.61,157.03 453.06,194.08 456.51,234.46 459.96,262.85 463.41,275.43 466.86,287.12 470.31,297.70 473.76,286.14 477.22,278.50 480.67,259.72 484.12,235.78 487.57,215.56 491.02,191.40 494.47,176.78 497.92,157.89 501.37,160.02 504.82,161.31 508.27,171.69 511.73,184.47 515.18,217.64 518.63,232.23 522.08,254.37 525.53,280.41 528.98,288.57 532.43,290.58 535.88,290.17 539.33,278.03 542.78,257.74 546.24,229.22 549.69,188.70 553.14,151.43 556.59,124.35 560.04,106.80 563.49,89.07 566.94,74.74 570.39,64.63 573.84,83.17 577.29,108.44 580.75,132.73 584.20,164.39 587.65,207.26 591.10,249.58 594.55,278.64 598.00,317.24 601.45,339.00 604.90,346.91 608.35,328.18 611.80,334.39 615.25,310.73 618.71,286.57 622.16,257.89 625.61,224.98 629.06,188.23 632.51,153.33 635.96,132.64 639.41,127.96 642.86,128.13 646.31,127.69 649.76,139.39 653.22,159.34 656.67,179.85 660.12,205.67 663.57,224.69 667.02,235.22 670.47,250.09 673.92,256.27 677.37,256.69 680.82,237.68 684.27,216.43 687.73,210.38 691.18,178.42 694.63,164.10 698.08,140.09 701.53,125.08 704.98,124.34 708.43,119.92 711.88,122.44 715.33,160.96 718.78,189.94 722.24,224.30 725.69,255.18 729.14,281.90 732.59,313.87 736.04,320.87 739.49,340.92 742.94,346.00 746.39,327.58 749.84,316.00 753.29,278.49 756.75,241.27 760.20,202.48 763.65,173.19 767.10,132.47 770.55,106.33 774.00,82.16 777.45,71.70 780.90,74.13 784.35,74.74 787.80,99.72 791.25,132.75 794.71,169.51 798.16,188.08 801.61,229.38 805.06,254.42 808.51,278.65 811.96,295.57 815.41,291.01 818.86,289.80 822.31,276.84 825.76,257.13 829.22,235.81 832.67,203.16 836.12,190.00 839.57,177.52 843.02,158.61 846.47,159.51 849.92,162.03 853.37,176.72 856.82,186.30 860.27,211.33 863.73,234.07 867.18,253.93 870.63,279.27 874.08,283.37 877.53,288.93 880.98,294.01 884.43,275.56 887.88,245.67 891.33,225.14 894.78,188.58 898.24,161.32 901.69,127.12 905.14,106.37 908.59,82.01 912.04,65.36 915.49,73.55 918.94,78.72 922.39,103.28 925.84,135.12 929.29,156.22 932.75,205.24 936.20,251.12 939.65,278.84 943.10,310.54 946.55,336.15 950.00,340.50"/>
</svg>
